{
    "asset" : {
        "generator" : "Khronos glTF Blender I/O v3.4.50",
        "version" : "2.0"
    },
    "scene" : 0,
    "scenes" : [
        {
            "extras" : {
                "uuid" : "ee6f5569-bfd7-424f-91e4-1873b6cbfb82",
                "assets reported" : {}
            },
            "name" : "Scene",
            "nodes" : [
                24
            ]
        }
    ],
    "nodes" : [
        {
            "name" : "Foot IKBackRight",
            "rotation" : [
                0.0010609455639496446,
                0.024611594155430794,
                -0.01606523059308529,
                0.999567449092865
            ],
            "scale" : [
                1,
                0.9999998807907104,
                0.9999998807907104
            ],
            "translation" : [
                3.864988684654236e-08,
                0.30326372385025024,
                1.3969838619232178e-09
            ]
        },
        {
            "children" : [
                0
            ],
            "name" : "leg3BackRight",
            "rotation" : [
                -0.004754568915814161,
                0.005771198309957981,
                -0.018056316301226616,
                0.9998090267181396
            ],
            "translation" : [
                -1.0873191058635712e-07,
                0.2997017502784729,
                2.8812792152166367e-09
            ]
        },
        {
            "children" : [
                1
            ],
            "name" : "leg2BackRight",
            "rotation" : [
                0.0015118801966309547,
                0.004424145445227623,
                -0.002584763104096055,
                0.9999857544898987
            ],
            "scale" : [
                1,
                1,
                0.9999999403953552
            ],
            "translation" : [
                -5.023321136832237e-08,
                0.3189871907234192,
                2.3283064365386963e-10
            ]
        },
        {
            "children" : [
                2
            ],
            "name" : "leg1BackRight",
            "rotation" : [
                0.041704900562763214,
                -0.019818823784589767,
                -0.014855191111564636,
                0.9988229274749756
            ],
            "scale" : [
                1,
                1.0000001192092896,
                0.9999999403953552
            ],
            "translation" : [
                3.1315721571445465e-08,
                0.07789145410060883,
                3.259629011154175e-09
            ]
        },
        {
            "children" : [
                3
            ],
            "name" : "leg0BackRight",
            "rotation" : [
                0.2795601189136505,
                0.6803200244903564,
                -0.6172544360160828,
                0.2792987823486328
            ],
            "scale" : [
                1.0000001192092896,
                0.9999999403953552,
                1
            ],
            "translation" : [
                0.11876041442155838,
                0.035477280616760254,
                -0.11385519802570343
            ]
        },
        {
            "name" : "Foot IKFrontRight",
            "rotation" : [
                0.006004537455737591,
                0.05587437003850937,
                0.014750349335372448,
                0.9983108043670654
            ],
            "scale" : [
                0.9999998807907104,
                0.9999999403953552,
                0.9999998807907104
            ],
            "translation" : [
                1.2083910405635834e-07,
                0.3162273168563843,
                5.820766091346741e-11
            ]
        },
        {
            "children" : [
                5
            ],
            "name" : "leg3FrontRight",
            "rotation" : [
                -0.014055824838578701,
                0.010784048587083817,
                -0.005201251246035099,
                0.9998295307159424
            ],
            "scale" : [
                0.9999998807907104,
                0.9999998807907104,
                1.0000001192092896
            ],
            "translation" : [
                -1.0141229722648859e-07,
                0.3072550892829895,
                1.862645149230957e-09
            ]
        },
        {
            "children" : [
                6
            ],
            "name" : "leg2FrontRight",
            "rotation" : [
                0.007401200011372566,
                0.008433135226368904,
                -0.014368035830557346,
                0.9998339414596558
            ],
            "translation" : [
                3.550667315721512e-09,
                0.3095913231372833,
                -2.561137080192566e-09
            ]
        },
        {
            "children" : [
                7
            ],
            "name" : "leg1FrontRight",
            "rotation" : [
                -0.038402996957302094,
                -0.03563353419303894,
                0.0829390212893486,
                0.9951766729354858
            ],
            "scale" : [
                0.9999999403953552,
                0.9999998807907104,
                0.9999998807907104
            ],
            "translation" : [
                4.190951585769653e-08,
                0.08014006912708282,
                5.238689482212067e-09
            ]
        },
        {
            "children" : [
                8
            ],
            "name" : "leg0FrontRight",
            "rotation" : [
                0.6591556072235107,
                0.32896289229393005,
                -0.30382677912712097,
                0.6041412353515625
            ],
            "translation" : [
                0.11522634327411652,
                0.03547729551792145,
                0.11743059009313583
            ]
        },
        {
            "name" : "Foot IKFrontLeft",
            "rotation" : [
                -0.06119168922305107,
                -0.04452434182167053,
                -0.037568774074316025,
                0.9964244961738586
            ],
            "translation" : [
                -6.833579391241074e-08,
                0.3053905963897705,
                -4.6566128730773926e-09
            ]
        },
        {
            "children" : [
                10
            ],
            "name" : "leg3FrontLeft",
            "rotation" : [
                0.010584506206214428,
                -0.00934651866555214,
                0.008387569338083267,
                0.9998651146888733
            ],
            "scale" : [
                1,
                1.0000001192092896,
                1
            ],
            "translation" : [
                -1.3291719369590282e-07,
                0.3120264410972595,
                2.3283064365386963e-10
            ]
        },
        {
            "children" : [
                11
            ],
            "name" : "leg2FrontLeft",
            "rotation" : [
                -0.00990823283791542,
                -0.008372632786631584,
                -0.008760080672800541,
                0.9998775124549866
            ],
            "scale" : [
                0.9999999403953552,
                1,
                0.9999998807907104
            ],
            "translation" : [
                1.7083948478102684e-08,
                0.31184110045433044,
                -8.149072527885437e-10
            ]
        },
        {
            "children" : [
                12
            ],
            "name" : "leg1FrontLeft",
            "rotation" : [
                0.015044699423015118,
                0.037334661930799484,
                -0.0055451602675020695,
                0.9991742968559265
            ],
            "translation" : [
                -6.51925802230835e-09,
                0.07685704529285431,
                3.725290298461914e-09
            ]
        },
        {
            "children" : [
                13
            ],
            "name" : "leg0FrontLeft",
            "rotation" : [
                0.6501359343528748,
                -0.30263397097587585,
                0.25153642892837524,
                0.6499733924865723
            ],
            "translation" : [
                -0.11522630602121353,
                0.035477280616760254,
                0.11743056774139404
            ]
        },
        {
            "name" : "Foot IKBackLeft",
            "rotation" : [
                -0.0033585517667233944,
                -0.025515135377645493,
                -0.02448708564043045,
                0.9993688464164734
            ],
            "scale" : [
                0.9999998211860657,
                0.9999999403953552,
                1
            ],
            "translation" : [
                3.096647560596466e-08,
                0.3155573606491089,
                1.862645149230957e-09
            ]
        },
        {
            "children" : [
                15
            ],
            "name" : "leg3BackLeft",
            "rotation" : [
                -0.010133596137166023,
                -0.0055840034037828445,
                0.0031313803046941757,
                0.9999281764030457
            ],
            "scale" : [
                1,
                1.0000001192092896,
                0.9999999403953552
            ],
            "translation" : [
                -9.704672265797853e-08,
                0.3066682517528534,
                2.9103830456733704e-09
            ]
        },
        {
            "children" : [
                16
            ],
            "name" : "leg2BackLeft",
            "rotation" : [
                -0.0018612794810906053,
                -0.004421373829245567,
                -0.0031936708837747574,
                0.9999834299087524
            ],
            "scale" : [
                0.9999999403953552,
                1.0000001192092896,
                1
            ],
            "translation" : [
                6.728805601596832e-08,
                0.3120225667953491,
                -3.958120942115784e-09
            ]
        },
        {
            "children" : [
                17
            ],
            "name" : "leg1BackLeft",
            "rotation" : [
                0.013374129310250282,
                0.019814040511846542,
                -0.011403639800846577,
                0.999649167060852
            ],
            "scale" : [
                1.0000001192092896,
                1,
                1
            ],
            "translation" : [
                5.005858838558197e-09,
                0.07668174058198929,
                -2.2118911147117615e-09
            ]
        },
        {
            "children" : [
                18
            ],
            "name" : "leg0BackLeft",
            "rotation" : [
                0.27241969108581543,
                -0.6684262156486511,
                0.6426989436149597,
                0.2567721903324127
            ],
            "translation" : [
                -0.11876041442155838,
                0.035477280616760254,
                -0.11385522782802582
            ]
        },
        {
            "mesh" : 1,
            "name" : "Body",
            "rotation" : [
                -1,
                -5.662462897998281e-16,
                -7.574776361707336e-09,
                6.339203650895797e-08
            ],
            "translation" : [
                -3.1394834144661294e-16,
                -0.01406407356262207,
                2.0723270210964984e-08
            ]
        },
        {
            "mesh" : 2,
            "name" : "Cylinder",
            "rotation" : [
                -1,
                -5.662462897998281e-16,
                -7.574776361707336e-09,
                6.339203650895797e-08
            ],
            "translation" : [
                -7.940933880509066e-23,
                -0.16830231249332428,
                0
            ]
        },
        {
            "children" : [
                4,
                9,
                14,
                19,
                20,
                21
            ],
            "name" : "Body",
            "rotation" : [
                1,
                5.088690720462098e-16,
                7.574776361707336e-09,
                6.339203650895797e-08
            ]
        },
        {
            "mesh" : 0,
            "name" : "Leg",
            "skin" : 0
        },
        {
            "children" : [
                23,
                22
            ],
            "name" : "Armature"
        }
    ],
    "materials" : [
        {
            "doubleSided" : true,
            "name" : "Material.001",
            "pbrMetallicRoughness" : {
                "baseColorFactor" : [
                    0.800000011920929,
                    0.800000011920929,
                    0.800000011920929,
                    1
                ],
                "metallicFactor" : 0,
                "roughnessFactor" : 0.4000000059604645
            }
        }
    ],
    "meshes" : [
        {
            "name" : "Cylinder.002",
            "primitives" : [
                {
                    "attributes" : {
                        "POSITION" : 0,
                        "TEXCOORD_0" : 1,
                        "NORMAL" : 2,
                        "TANGENT" : 3,
                        "JOINTS_0" : 4,
                        "WEIGHTS_0" : 5
                    },
                    "indices" : 6
                }
            ]
        },
        {
            "name" : "Cube.001",
            "primitives" : [
                {
                    "attributes" : {
                        "POSITION" : 8,
                        "TEXCOORD_0" : 9,
                        "NORMAL" : 10,
                        "TANGENT" : 11
                    },
                    "indices" : 12,
                    "material" : 0
                }
            ]
        },
        {
            "name" : "Cylinder",
            "primitives" : [
                {
                    "attributes" : {
                        "POSITION" : 13,
                        "TEXCOORD_0" : 14,
                        "NORMAL" : 15,
                        "TANGENT" : 16
                    },
                    "indices" : 17
                }
            ]
        }
    ],
    "skins" : [
        {
            "inverseBindMatrices" : 7,
            "joints" : [
                22,
                4,
                3,
                2,
                1,
                0,
                9,
                8,
                7,
                6,
                5,
                14,
                13,
                12,
                11,
                10,
                19,
                18,
                17,
                16,
                15
            ],
            "name" : "Armature"
        }
    ],
    "accessors" : [
        {
            "bufferView" : 0,
            "componentType" : 5126,
            "count" : 3718,
            "max" : [
                0.8253329396247864,
                0.017567966133356094,
                0.8196420073509216
            ],
            "min" : [
                -0.8253328800201416,
                -0.059013281017541885,
                -0.8196419477462769
            ],
            "type" : "VEC3"
        },
        {
            "bufferView" : 1,
            "componentType" : 5126,
            "count" : 3718,
            "type" : "VEC2"
        },
        {
            "bufferView" : 2,
            "componentType" : 5126,
            "count" : 3718,
            "type" : "VEC3"
        },
        {
            "bufferView" : 3,
            "componentType" : 5126,
            "count" : 3718,
            "type" : "VEC4"
        },
        {
            "bufferView" : 4,
            "componentType" : 5121,
            "count" : 3718,
            "type" : "VEC4"
        },
        {
            "bufferView" : 5,
            "componentType" : 5126,
            "count" : 3718,
            "type" : "VEC4"
        },
        {
            "bufferView" : 6,
            "componentType" : 5123,
            "count" : 4272,
            "type" : "SCALAR"
        },
        {
            "bufferView" : 7,
            "componentType" : 5126,
            "count" : 21,
            "type" : "MAT4"
        },
        {
            "bufferView" : 8,
            "componentType" : 5126,
            "count" : 316,
            "max" : [
                0.21292799711227417,
                0.10109147429466248,
                0.21292802691459656
            ],
            "min" : [
                -0.21292799711227417,
                -0.00032873364398255944,
                -0.24670195579528809
            ],
            "type" : "VEC3"
        },
        {
            "bufferView" : 9,
            "componentType" : 5126,
            "count" : 316,
            "type" : "VEC2"
        },
        {
            "bufferView" : 10,
            "componentType" : 5126,
            "count" : 316,
            "type" : "VEC3"
        },
        {
            "bufferView" : 11,
            "componentType" : 5126,
            "count" : 316,
            "type" : "VEC4"
        },
        {
            "bufferView" : 12,
            "componentType" : 5123,
            "count" : 360,
            "type" : "SCALAR"
        },
        {
            "bufferView" : 13,
            "componentType" : 5126,
            "count" : 582,
            "max" : [
                0.09815173596143723,
                -0.03994060307741165,
                -0.21159085631370544
            ],
            "min" : [
                -0.0999688133597374,
                -0.09207761287689209,
                -0.23440082371234894
            ],
            "type" : "VEC3"
        },
        {
            "bufferView" : 14,
            "componentType" : 5126,
            "count" : 582,
            "type" : "VEC2"
        },
        {
            "bufferView" : 15,
            "componentType" : 5126,
            "count" : 582,
            "type" : "VEC3"
        },
        {
            "bufferView" : 16,
            "componentType" : 5126,
            "count" : 582,
            "type" : "VEC4"
        },
        {
            "bufferView" : 17,
            "componentType" : 5123,
            "count" : 2268,
            "type" : "SCALAR"
        }
    ],
    "bufferViews" : [
        {
            "buffer" : 0,
            "byteLength" : 44616,
            "byteOffset" : 0,
            "target" : 34962
        },
        {
            "buffer" : 0,
            "byteLength" : 29744,
            "byteOffset" : 44616,
            "target" : 34962
        },
        {
            "buffer" : 0,
            "byteLength" : 44616,
            "byteOffset" : 74360,
            "target" : 34962
        },
        {
            "buffer" : 0,
            "byteLength" : 59488,
            "byteOffset" : 118976,
            "target" : 34962
        },
        {
            "buffer" : 0,
            "byteLength" : 14872,
            "byteOffset" : 178464,
            "target" : 34962
        },
        {
            "buffer" : 0,
            "byteLength" : 59488,
            "byteOffset" : 193336,
            "target" : 34962
        },
        {
            "buffer" : 0,
            "byteLength" : 8544,
            "byteOffset" : 252824,
            "target" : 34963
        },
        {
            "buffer" : 0,
            "byteLength" : 1344,
            "byteOffset" : 261368
        },
        {
            "buffer" : 0,
            "byteLength" : 3792,
            "byteOffset" : 262712,
            "target" : 34962
        },
        {
            "buffer" : 0,
            "byteLength" : 2528,
            "byteOffset" : 266504,
            "target" : 34962
        },
        {
            "buffer" : 0,
            "byteLength" : 3792,
            "byteOffset" : 269032,
            "target" : 34962
        },
        {
            "buffer" : 0,
            "byteLength" : 5056,
            "byteOffset" : 272824,
            "target" : 34962
        },
        {
            "buffer" : 0,
            "byteLength" : 720,
            "byteOffset" : 277880,
            "target" : 34963
        },
        {
            "buffer" : 0,
            "byteLength" : 6984,
            "byteOffset" : 278600,
            "target" : 34962
        },
        {
            "buffer" : 0,
            "byteLength" : 4656,
            "byteOffset" : 285584,
            "target" : 34962
        },
        {
            "buffer" : 0,
            "byteLength" : 6984,
            "byteOffset" : 290240,
            "target" : 34962
        },
        {
            "buffer" : 0,
            "byteLength" : 9312,
            "byteOffset" : 297224,
            "target" : 34962
        },
        {
            "buffer" : 0,
            "byteLength" : 4536,
            "byteOffset" : 306536,
            "target" : 34963
        }
    ],
    "buffers" : [
        {
            "byteLength" : 311072,
            "uri" : "spiderBotModel-54902a88831e200440d896de09b27b99.bin"
        }
    ]
}
